<svg width="80" height="80" viewBox="0 0 80 80" fill="none" xmlns="http://www.w3.org/2000/svg">
<g opacity="0.5">
<g filter="url(#filter0_i_4201_2926)">
<path d="M66.668 13.332H13.3346C9.66797 13.332 6.7013 16.332 6.7013 19.9987L6.66797 59.9987C6.66797 63.6654 9.66797 66.6654 13.3346 66.6654H66.668C70.3346 66.6654 73.3346 63.6654 73.3346 59.9987V19.9987C73.3346 16.332 70.3346 13.332 66.668 13.332ZM65.3346 27.4987L41.768 42.232C40.7013 42.8987 39.3013 42.8987 38.2346 42.232L14.668 27.4987C13.8346 26.9654 13.3346 26.0654 13.3346 25.0987C13.3346 22.8654 15.768 21.532 17.668 22.6987L40.0013 36.6654L62.3346 22.6987C64.2346 21.532 66.668 22.8654 66.668 25.0987C66.668 26.0654 66.168 26.9654 65.3346 27.4987Z" fill="#2D2D2D"/>
<path d="M66.668 13.332H13.3346C9.66797 13.332 6.7013 16.332 6.7013 19.9987L6.66797 59.9987C6.66797 63.6654 9.66797 66.6654 13.3346 66.6654H66.668C70.3346 66.6654 73.3346 63.6654 73.3346 59.9987V19.9987C73.3346 16.332 70.3346 13.332 66.668 13.332ZM65.3346 27.4987L41.768 42.232C40.7013 42.8987 39.3013 42.8987 38.2346 42.232L14.668 27.4987C13.8346 26.9654 13.3346 26.0654 13.3346 25.0987C13.3346 22.8654 15.768 21.532 17.668 22.6987L40.0013 36.6654L62.3346 22.6987C64.2346 21.532 66.668 22.8654 66.668 25.0987C66.668 26.0654 66.168 26.9654 65.3346 27.4987Z" fill="url(#paint0_linear_4201_2926)" fill-opacity="0.9"/>
</g>
<path d="M13.335 13.832H66.668C70.0585 13.832 72.835 16.6085 72.835 19.999V59.999C72.8348 63.3894 70.0584 66.165 66.668 66.165H13.335C9.94455 66.165 7.16815 63.3894 7.16797 59.999L7.20117 19.999L7.20898 19.6826C7.37315 16.4344 10.0535 13.832 13.335 13.832ZM67.168 25.0986C67.1679 22.4665 64.2995 20.9057 62.0732 22.2725L62.0693 22.2744L40.001 36.0752L17.9326 22.2744L17.9297 22.2725L17.7188 22.1533C15.5265 21.0047 12.835 22.5487 12.835 25.0986C12.835 26.1692 13.3542 27.1646 14.2207 27.7979L14.3984 27.9199L14.4033 27.9229L37.9697 42.6562C39.1985 43.4241 40.8045 43.4242 42.0332 42.6562L65.5996 27.9229L65.6045 27.9199C66.5772 27.2973 67.168 26.2405 67.168 25.0986Z" stroke="url(#paint1_linear_4201_2926)"/>
</g>
<defs>
<filter id="filter0_i_4201_2926" x="6.66797" y="13.332" width="66.668" height="53.332" filterUnits="userSpaceOnUse" color-interpolation-filters="sRGB">
<feFlood flood-opacity="0" result="BackgroundImageFix"/>
<feBlend mode="normal" in="SourceGraphic" in2="BackgroundImageFix" result="shape"/>
<feColorMatrix in="SourceAlpha" type="matrix" values="0 0 0 0 0 0 0 0 0 0 0 0 0 0 0 0 0 0 127 0" result="hardAlpha"/>
<feOffset/>
<feGaussianBlur stdDeviation="17"/>
<feComposite in2="hardAlpha" operator="arithmetic" k2="-1" k3="1"/>
<feColorMatrix type="matrix" values="0 0 0 0 0.176471 0 0 0 0 0.176471 0 0 0 0 0.176471 0 0 0 0.15 0"/>
<feBlend mode="normal" in2="shape" result="effect1_innerShadow_4201_2926"/>
</filter>
<linearGradient id="paint0_linear_4201_2926" x1="40.0013" y1="66.6654" x2="40.0013" y2="13.332" gradientUnits="userSpaceOnUse">
<stop stop-color="white" stop-opacity="0.3"/>
<stop offset="1" stop-color="white"/>
</linearGradient>
<linearGradient id="paint1_linear_4201_2926" x1="6.66797" y1="14.6415" x2="79.2923" y2="25.4964" gradientUnits="userSpaceOnUse">
<stop stop-color="#2D2D2D" stop-opacity="0.4"/>
<stop offset="1" stop-color="#2D2D2D" stop-opacity="0.8"/>
</linearGradient>
</defs>
</svg>
