<svg width="80" height="80" viewBox="0 0 80 80" fill="none" xmlns="http://www.w3.org/2000/svg">
<g opacity="0.5">
<g filter="url(#filter0_i_4201_2893)">
<path d="M66.668 13.332H13.3346C9.66797 13.332 6.7013 16.332 6.7013 19.9987L6.66797 59.9987C6.66797 63.6654 9.66797 66.6654 13.3346 66.6654H66.668C70.3346 66.6654 73.3346 63.6654 73.3346 59.9987V19.9987C73.3346 16.332 70.3346 13.332 66.668 13.332ZM65.3346 27.4987L41.768 42.232C40.7013 42.8987 39.3013 42.8987 38.2346 42.232L14.668 27.4987C13.8346 26.9654 13.3346 26.0654 13.3346 25.0987C13.3346 22.8654 15.768 21.532 17.668 22.6987L40.0013 36.6654L62.3346 22.6987C64.2346 21.532 66.668 22.8654 66.668 25.0987C66.668 26.0654 66.168 26.9654 65.3346 27.4987Z" fill="#2D2D2D"/>
<path d="M66.668 13.332H13.3346C9.66797 13.332 6.7013 16.332 6.7013 19.9987L6.66797 59.9987C6.66797 63.6654 9.66797 66.6654 13.3346 66.6654H66.668C70.3346 66.6654 73.3346 63.6654 73.3346 59.9987V19.9987C73.3346 16.332 70.3346 13.332 66.668 13.332ZM65.3346 27.4987L41.768 42.232C40.7013 42.8987 39.3013 42.8987 38.2346 42.232L14.668 27.4987C13.8346 26.9654 13.3346 26.0654 13.3346 25.0987C13.3346 22.8654 15.768 21.532 17.668 22.6987L40.0013 36.6654L62.3346 22.6987C64.2346 21.532 66.668 22.8654 66.668 25.0987C66.668 26.0654 66.168 26.9654 65.3346 27.4987Z" fill="url(#paint0_linear_4201_2893)" fill-opacity="0.9"/>
</g>
<path d="M13.335 13.832H66.668C70.0585 13.832 72.835 16.6085 72.835 19.999V59.999C72.8348 63.3894 70.0584 66.165 66.668 66.165H13.335C9.94455 66.165 7.16815 63.3894 7.16797 59.999L7.20117 19.999L7.20898 19.6826C7.37315 16.4344 10.0535 13.832 13.335 13.832ZM67.168 25.0986C67.1679 22.4665 64.2995 20.9057 62.0732 22.2725L62.0693 22.2744L40.001 36.0752L17.9326 22.2744L17.9297 22.2725L17.7188 22.1533C15.5265 21.0047 12.835 22.5487 12.835 25.0986C12.835 26.1692 13.3542 27.1646 14.2207 27.7979L14.3984 27.9199L14.4033 27.9229L37.9697 42.6562C39.1985 43.4241 40.8045 43.4242 42.0332 42.6562L65.5996 27.9229L65.6045 27.9199C66.5772 27.2973 67.168 26.2405 67.168 25.0986Z" stroke="url(#paint1_linear_4201_2893)"/>
<rect x="45.332" y="45.332" width="34.6667" height="34.6667" rx="17.3333" fill="white"/>
<g filter="url(#filter1_i_4201_2893)">
<path d="M72.1407 57.3314L73.1941 54.9981L75.5274 53.9447C76.0474 53.7047 76.0474 52.9714 75.5274 52.7314L73.1941 51.6781L72.1407 49.3314C71.9007 48.8114 71.1674 48.8114 70.9274 49.3314L69.8741 51.6647L67.5274 52.7181C67.0074 52.9581 67.0074 53.6914 67.5274 53.9314L69.8607 54.9847L70.9141 57.3314C71.1541 57.8514 71.9007 57.8514 72.1407 57.3314ZM61.5274 59.3314L59.4074 54.6647C58.9407 53.6247 57.4474 53.6247 56.9807 54.6647L54.8607 59.3314L50.1941 61.4514C49.1541 61.9314 49.1541 63.4114 50.1941 63.8781L54.8607 65.9981L56.9807 70.6647C57.4607 71.7047 58.9407 71.7047 59.4074 70.6647L61.5274 65.9981L66.1941 63.8781C67.2341 63.3981 67.2341 61.9181 66.1941 61.4514L61.5274 59.3314ZM70.9141 67.9981L69.8607 70.3314L67.5274 71.3847C67.0074 71.6247 67.0074 72.3581 67.5274 72.5981L69.8607 73.6514L70.9141 75.9981C71.1541 76.5181 71.8874 76.5181 72.1274 75.9981L73.1807 73.6647L75.5274 72.6114C76.0474 72.3714 76.0474 71.6381 75.5274 71.3981L73.1941 70.3447L72.1407 67.9981C71.9007 67.4781 71.1541 67.4781 70.9141 67.9981Z" fill="#2D2D2D"/>
<path d="M72.1407 57.3314L73.1941 54.9981L75.5274 53.9447C76.0474 53.7047 76.0474 52.9714 75.5274 52.7314L73.1941 51.6781L72.1407 49.3314C71.9007 48.8114 71.1674 48.8114 70.9274 49.3314L69.8741 51.6647L67.5274 52.7181C67.0074 52.9581 67.0074 53.6914 67.5274 53.9314L69.8607 54.9847L70.9141 57.3314C71.1541 57.8514 71.9007 57.8514 72.1407 57.3314ZM61.5274 59.3314L59.4074 54.6647C58.9407 53.6247 57.4474 53.6247 56.9807 54.6647L54.8607 59.3314L50.1941 61.4514C49.1541 61.9314 49.1541 63.4114 50.1941 63.8781L54.8607 65.9981L56.9807 70.6647C57.4607 71.7047 58.9407 71.7047 59.4074 70.6647L61.5274 65.9981L66.1941 63.8781C67.2341 63.3981 67.2341 61.9181 66.1941 61.4514L61.5274 59.3314ZM70.9141 67.9981L69.8607 70.3314L67.5274 71.3847C67.0074 71.6247 67.0074 72.3581 67.5274 72.5981L69.8607 73.6514L70.9141 75.9981C71.1541 76.5181 71.8874 76.5181 72.1274 75.9981L73.1807 73.6647L75.5274 72.6114C76.0474 72.3714 76.0474 71.6381 75.5274 71.3981L73.1941 70.3447L72.1407 67.9981C71.9007 67.4781 71.1541 67.4781 70.9141 67.9981Z" fill="url(#paint2_linear_4201_2893)" fill-opacity="0.9"/>
</g>
<path d="M71.3682 68.208C71.4218 68.0918 71.5788 68.0768 71.6582 68.1641L71.6865 68.208L72.7383 70.5498L72.8154 70.7227L72.9883 70.8008L75.3164 71.8516H75.3174C75.4501 71.9128 75.4501 72.096 75.3174 72.1572L72.9756 73.209L72.8027 73.2861L72.7246 73.459L71.6738 75.7881C71.6203 75.9042 71.4734 75.919 71.3965 75.832L71.3682 75.7881L70.3164 73.4463L70.2393 73.2734L70.0664 73.1953L67.7354 72.1436C67.6207 72.0894 67.6068 71.9438 67.6934 71.8672L67.7373 71.8389L70.0664 70.7871L70.2383 70.709L70.3164 70.5371L71.3682 68.208ZM57.4365 54.8691C57.7265 54.2231 58.6611 54.2232 58.9512 54.8691L58.9521 54.8711L61.0723 59.5381L61.1494 59.709L61.3203 59.7871L65.9873 61.9062L65.9893 61.9072C66.63 62.1947 66.6426 63.12 65.9844 63.4238L61.3203 65.543L61.1494 65.6201L61.0723 65.791L58.9521 70.458L58.9512 70.46C58.6637 71.1007 57.7384 71.1133 57.4346 70.4551L55.3164 65.791L55.2383 65.6201L55.0674 65.543L50.4004 63.4229L50.3984 63.4219C49.758 63.1342 49.7454 62.2091 50.4033 61.9053L50.4023 61.9043L55.0674 59.7871L55.2383 59.709L55.3164 59.5381L57.4355 54.8711L57.4365 54.8691ZM71.3818 49.541C71.4354 49.4252 71.5813 49.4104 71.6582 49.4971L71.6865 49.541L72.7383 51.8828L72.8154 52.0557L72.9883 52.1338L75.3164 53.1855H75.3174C75.4499 53.2467 75.4505 53.4287 75.3184 53.4902L72.9883 54.542L72.8164 54.6201L72.7383 54.792L71.6865 57.1221C71.6327 57.2381 71.4757 57.2525 71.3965 57.165L71.3682 57.1221L70.3164 54.7803L70.2393 54.6074L70.0664 54.5293L67.7354 53.4766C67.6043 53.4146 67.6051 53.2329 67.7373 53.1719L67.7363 53.1709L70.0791 52.1211L70.252 52.043L70.3301 51.8701L71.3809 49.54L71.3818 49.541Z" stroke="url(#paint3_linear_4201_2893)"/>
</g>
<defs>
<filter id="filter0_i_4201_2893" x="6.66797" y="13.332" width="66.668" height="53.332" filterUnits="userSpaceOnUse" color-interpolation-filters="sRGB">
<feFlood flood-opacity="0" result="BackgroundImageFix"/>
<feBlend mode="normal" in="SourceGraphic" in2="BackgroundImageFix" result="shape"/>
<feColorMatrix in="SourceAlpha" type="matrix" values="0 0 0 0 0 0 0 0 0 0 0 0 0 0 0 0 0 0 127 0" result="hardAlpha"/>
<feOffset/>
<feGaussianBlur stdDeviation="17"/>
<feComposite in2="hardAlpha" operator="arithmetic" k2="-1" k3="1"/>
<feColorMatrix type="matrix" values="0 0 0 0 0.176471 0 0 0 0 0.176471 0 0 0 0 0.176471 0 0 0 0.15 0"/>
<feBlend mode="normal" in2="shape" result="effect1_innerShadow_4201_2893"/>
</filter>
<filter id="filter1_i_4201_2893" x="49.4141" y="48.9414" width="26.5039" height="27.4453" filterUnits="userSpaceOnUse" color-interpolation-filters="sRGB">
<feFlood flood-opacity="0" result="BackgroundImageFix"/>
<feBlend mode="normal" in="SourceGraphic" in2="BackgroundImageFix" result="shape"/>
<feColorMatrix in="SourceAlpha" type="matrix" values="0 0 0 0 0 0 0 0 0 0 0 0 0 0 0 0 0 0 127 0" result="hardAlpha"/>
<feOffset/>
<feGaussianBlur stdDeviation="17"/>
<feComposite in2="hardAlpha" operator="arithmetic" k2="-1" k3="1"/>
<feColorMatrix type="matrix" values="0 0 0 0 0.176471 0 0 0 0 0.176471 0 0 0 0 0.176471 0 0 0 0.15 0"/>
<feBlend mode="normal" in2="shape" result="effect1_innerShadow_4201_2893"/>
</filter>
<linearGradient id="paint0_linear_4201_2893" x1="40.0013" y1="66.6654" x2="40.0013" y2="13.332" gradientUnits="userSpaceOnUse">
<stop stop-color="white" stop-opacity="0.3"/>
<stop offset="1" stop-color="white"/>
</linearGradient>
<linearGradient id="paint1_linear_4201_2893" x1="6.66797" y1="14.6415" x2="79.2923" y2="25.4964" gradientUnits="userSpaceOnUse">
<stop stop-color="#2D2D2D" stop-opacity="0.4"/>
<stop offset="1" stop-color="#2D2D2D" stop-opacity="0.8"/>
</linearGradient>
<linearGradient id="paint2_linear_4201_2893" x1="62.6657" y1="76.3881" x2="62.6657" y2="48.9414" gradientUnits="userSpaceOnUse">
<stop stop-color="white" stop-opacity="0.3"/>
<stop offset="1" stop-color="white"/>
</linearGradient>
<linearGradient id="paint3_linear_4201_2893" x1="49.4141" y1="49.6153" x2="78.5425" y2="52.9786" gradientUnits="userSpaceOnUse">
<stop stop-color="#2D2D2D" stop-opacity="0.4"/>
<stop offset="1" stop-color="#2D2D2D" stop-opacity="0.8"/>
</linearGradient>
</defs>
</svg>
