<svg width="32" height="32" viewBox="0 0 32 32" fill="none" xmlns="http://www.w3.org/2000/svg">
<path fill-rule="evenodd" clip-rule="evenodd" d="M10.1051 0.302054C12.8994 0.0710716 15.6768 0 18.4375 0C19.5484 0 20.6762 0.0177679 21.7872 0.0355358C22.8814 0.0710716 23.3864 0.33759 23.6389 0.76402C23.925 1.22599 23.9755 1.91893 23.4874 2.91394L14.6669 19.6691L14.852 5.68573H7.27717L7.54649 27.0072H18.9088L29.0254 8.20877C29.6146 7.10716 30.4057 6.68073 31.1296 6.94725C32.2069 7.32038 32.0217 9.00833 31.9207 9.91449C31.7019 11.94 31.4326 13.9833 31.1296 16.0089C30.6919 18.9228 30.2206 21.8545 29.5978 24.7685C28.8739 28.2154 25.3895 31.4314 22.0902 31.6979C19.2959 31.9112 16.5185 32 13.741 32C10.9804 32 8.21981 31.9289 5.49286 31.6979C2.26092 31.4314 -0.264028 28.2154 0.0221333 24.7685C0.257796 21.8545 0.628122 18.9228 1.06578 16.0089C1.50344 13.0949 1.9916 10.1632 2.59759 7.24931C3.32141 3.78456 6.80584 0.568573 10.1051 0.302054Z" fill="#FBFBFB"/>
</svg>
