<svg width="19" height="19" viewBox="0 0 19 19" fill="none" xmlns="http://www.w3.org/2000/svg">
<path fill-rule="evenodd" clip-rule="evenodd" d="M6.36692 1.16066C7.8515 1.03868 9.32715 1 10.7939 1C11.383 1 11.9839 1.00893 12.573 1.01785C13.1531 1.0357 13.4239 1.17851 13.5578 1.40462C13.7095 1.64858 13.7363 2.0175 13.4774 2.54708L8.79163 11.4487L8.88981 4.01978H4.86448L5.00729 15.3462H11.0438L16.4198 5.36157C16.7322 4.77546 17.1517 4.54935 17.5385 4.69216C18.1097 4.89149 18.0115 5.78701 17.958 6.26899C17.8419 7.34599 17.6991 8.43192 17.5385 9.50595C17.3064 11.053 17.0565 12.612 16.7233 14.1591C16.3395 15.9918 14.489 17.6995 12.7337 17.8393C11.2491 17.9524 9.77342 18 8.29777 18C6.82211 18 5.3643 17.9613 3.91542 17.8393C2.20176 17.6995 0.859982 15.9888 1.01171 14.1591C1.13667 12.612 1.33302 11.053 1.56508 9.50595C1.79714 7.95887 2.05598 6.39989 2.38026 4.85282C2.76405 3.0112 4.61458 1.30347 6.36692 1.16066Z" fill="#2D2D2D"/>
</svg>
