<svg width="57" height="57" viewBox="0 0 57 57" fill="none" xmlns="http://www.w3.org/2000/svg">
<circle cx="26" cy="26" r="26" fill="url(#paint0_linear_16_1216)"/>
<g filter="url(#filter0_d_16_1216)">
<path d="M33.4983 17.2821C33.4983 21.442 30.1412 24.8142 25.9999 24.8142C21.8587 24.8142 18.5015 21.442 18.5015 17.2821C18.5015 13.1222 21.8587 9.75 25.9999 9.75C30.1412 9.75 33.4983 13.1222 33.4983 17.2821Z" fill="white"/>
<path d="M25.9999 26.5358C30.886 26.5358 33.5875 32.3504 34.9328 36.7546C35.6998 39.2654 33.7229 41.6 31.1084 41.6H20.8914C18.2769 41.6 16.3 39.2654 17.067 36.7546C18.4123 32.3504 21.1138 26.5358 25.9999 26.5358Z" fill="white"/>
</g>
<rect x="35" y="35" width="22" height="22" rx="11" fill="white"/>
<g opacity="0.75">
<path d="M46 38.5C41.86 38.5 38.5 41.86 38.5 46C38.5 50.14 41.86 53.5 46 53.5C50.14 53.5 53.5 50.14 53.5 46C53.5 41.86 50.14 38.5 46 38.5ZM43.9675 49.2175L41.275 46.525C40.9825 46.2325 40.9825 45.76 41.275 45.4675C41.5675 45.175 42.04 45.175 42.3325 45.4675L44.5 47.6275L49.66 42.4675C49.9525 42.175 50.425 42.175 50.7175 42.4675C51.01 42.76 51.01 43.2325 50.7175 43.525L45.025 49.2175C44.74 49.51 44.26 49.51 43.9675 49.2175Z" fill="#3D9F42"/>
</g>
<defs>
<filter id="filter0_d_16_1216" x="8.8999" y="5.75" width="34.2002" height="47.8501" filterUnits="userSpaceOnUse" color-interpolation-filters="sRGB">
<feFlood flood-opacity="0" result="BackgroundImageFix"/>
<feColorMatrix in="SourceAlpha" type="matrix" values="0 0 0 0 0 0 0 0 0 0 0 0 0 0 0 0 0 0 127 0" result="hardAlpha"/>
<feOffset dy="4"/>
<feGaussianBlur stdDeviation="4"/>
<feComposite in2="hardAlpha" operator="out"/>
<feColorMatrix type="matrix" values="0 0 0 0 0.176471 0 0 0 0 0.176471 0 0 0 0 0.176471 0 0 0 0.25 0"/>
<feBlend mode="normal" in2="BackgroundImageFix" result="effect1_dropShadow_16_1216"/>
<feBlend mode="normal" in="SourceGraphic" in2="effect1_dropShadow_16_1216" result="shape"/>
</filter>
<linearGradient id="paint0_linear_16_1216" x1="26" y1="0" x2="26" y2="52" gradientUnits="userSpaceOnUse">
<stop stop-color="#D6E6FF"/>
<stop offset="1" stop-color="#2F82FF"/>
</linearGradient>
</defs>
</svg>
