<svg width="40" height="40" viewBox="0 0 40 40" fill="none" xmlns="http://www.w3.org/2000/svg">
<path d="M28 38V40H12V38H28ZM38 28V12C38 6.47715 33.5228 2 28 2H12C6.47715 2 2 6.47715 2 12V28C2 33.5228 6.47715 38 12 38V40C5.47608 40 0.168106 34.7939 0.00390625 28.3096L0 28V12C2.57711e-07 5.37258 5.37258 2.57703e-07 12 0H28L28.3096 0.00390625C34.7939 0.168106 40 5.47608 40 12V28L39.9961 28.3096C39.8345 34.691 34.691 39.8345 28.3096 39.9961L28 40V38C33.5228 38 38 33.5228 38 28Z" fill="#2D2D2D"/>
<path d="M19.7535 22.6225C23.7167 22.6225 27.0612 23.2732 27.0612 25.784C27.0612 28.2958 23.6947 28.9235 19.7535 28.9235C15.7912 28.9235 12.4458 28.2727 12.4458 25.7619C12.4458 23.2502 15.8123 22.6225 19.7535 22.6225ZM19.7535 10.4619C22.4383 10.4619 24.5893 12.6349 24.5893 15.346C24.5893 18.0571 22.4383 20.2309 19.7535 20.2309C17.0697 20.2309 14.9176 18.0571 14.9176 15.346C14.9176 12.6349 17.0697 10.4619 19.7535 10.4619Z" fill="#2D2D2D"/>
</svg>
